<svg width="736" height="736" viewBox="0 0 736 736" fill="none" xmlns="http://www.w3.org/2000/svg">
<rect width="122.411" height="341.333" rx="61.2053" transform="matrix(-0.745962 0.665989 -0.659057 -0.752093 526.274 456.713)" fill="#9800BE"/>
<rect width="122.41" height="440.676" rx="61.2051" transform="matrix(0.00462296 0.999989 -0.999989 -0.00462296 673.904 221.355)" fill="#CC00FF"/>
<path d="M440.389 393.381C474.191 393.538 501.72 421.066 501.876 454.869V454.869C502.033 488.671 474.757 515.946 440.955 515.79L122.692 514.319C88.8897 514.163 61.3609 486.634 61.2046 452.832V452.832C61.0484 419.029 88.3238 391.754 122.126 391.91L440.389 393.381Z" fill="#CC00FF"/>
<rect x="282.156" y="525" width="122.975" height="121.843" rx="60.9215" transform="rotate(45 282.156 525)" fill="#CC00FF"/>
<rect x="527.478" y="76.8886" width="122.975" height="121.843" rx="60.9215" transform="rotate(104.489 527.478 76.8886)" fill="#CC00FF"/>
</svg>