<svg id="Layer_1" data-name="Layer 1" xmlns="http://www.w3.org/2000/svg" xmlns:xlink="http://www.w3.org/1999/xlink" viewBox="0 0 536.1 501.44"><defs><linearGradient id="linear-gradient" x1="330.13" y1="500.98" x2="341.33" y2="436.77" gradientUnits="userSpaceOnUse"><stop offset="0" stop-color="#010101" stop-opacity="0"/><stop offset="0.95" stop-color="#010101"/></linearGradient><linearGradient id="linear-gradient-2" x1="379.81" y1="505.74" x2="385.28" y2="448.5" xlink:href="#linear-gradient"/><linearGradient id="linear-gradient-3" x1="335.24" y1="423.36" x2="395.29" y2="338.95" xlink:href="#linear-gradient"/><linearGradient id="linear-gradient-4" x1="399.4" y1="240.96" x2="450.75" y2="236.18" xlink:href="#linear-gradient"/><linearGradient id="linear-gradient-5" x1="303.16" y1="257.76" x2="228.22" y2="248.06" xlink:href="#linear-gradient"/><linearGradient id="linear-gradient-6" x1="339.75" y1="193.95" x2="346.84" y2="161.81" xlink:href="#linear-gradient"/><linearGradient id="linear-gradient-7" x1="287.67" y1="294.39" x2="283.1" y2="465.43" xlink:href="#linear-gradient"/><linearGradient id="linear-gradient-8" x1="317.87" y1="146.47" x2="358.12" y2="146.47" xlink:href="#linear-gradient"/><linearGradient id="linear-gradient-9" x1="363.97" y1="95.27" x2="364.96" y2="288.42" xlink:href="#linear-gradient"/><linearGradient id="linear-gradient-10" x1="480.79" y1="276.35" x2="487.43" y2="117.06" gradientUnits="userSpaceOnUse"><stop offset="0" stop-color="#fff" stop-opacity="0"/><stop offset="0.95" stop-color="#fff"/></linearGradient><linearGradient id="linear-gradient-11" x1="200.77" y1="263.8" x2="207.24" y2="366.35" xlink:href="#linear-gradient-10"/><linearGradient id="linear-gradient-12" x1="196.27" y1="170.43" x2="206.23" y2="232.49" xlink:href="#linear-gradient-10"/></defs><title>Social Media 1</title><path d="M84,337.39c-8.18-14.83-15.36-30.68-16.8-47.56-4-46.91,35.39-84.92,53.73-128.29,7.56-17.88,11.6-37.12,19.41-54.89,23.19-52.75,78.13-86.78,134.9-96.6,15.44-2.67,31.9-3.68,46.24,2.64,17.56,7.75,28.79,25,43.89,36.81C410.56,85,477.57,65.87,532,84.37c43.48,14.77,78,60.24,69.69,105.41-8.13,44.35-52.46,76.92-55.56,121.9-1.4,20.35,6.05,40.25,7.56,60.59,3,40.32-19.85,81.37-55.62,100.2-18,9.46-38.24,13.49-58.17,17.4-34.84,6.83-74.62,21.07-110.29,19.41-33-1.54-68.93-16.74-98.1-31.34C171.65,448,114.28,398.06,84,337.39Z" transform="translate(-66.87 -7.97)" fill="#ba00ff" opacity="0.24" style="isolation:isolate"/><path d="M321.12,484.62a12,12,0,0,0-3.31,3.69,4.16,4.16,0,0,0,.39,4.66c1.23,1.27,3.24,1.25,5,1.07a72.41,72.41,0,0,0,19.33-4.72c1.86-.74,3.84-1.68,4.76-3.47a8.88,8.88,0,0,0,.72-3.58l.34-5.51c.08-1.29-.09-2.95-1.33-3.31a2.81,2.81,0,0,0-1-.05c-4,.22-9.82-.59-13.34,1.47C328.49,477.34,324.94,481.56,321.12,484.62Z" transform="translate(-66.87 -7.97)" fill="#ba00ff"/><path d="M393.15,488.59a12.24,12.24,0,0,1,2.8,4.09,4.19,4.19,0,0,1-1,4.57c-1.39,1.1-3.38.81-5.09.4a72.18,72.18,0,0,1-18.53-7.24c-1.75-1-3.59-2.17-4.26-4.06a9,9,0,0,1-.24-3.65l.39-5.51c.09-1.29.48-2.91,1.75-3.1a2.89,2.89,0,0,1,1,.07c3.9.75,9.81.72,13,3.23C386.8,480.4,389.77,485.05,393.15,488.59Z" transform="translate(-66.87 -7.97)" fill="#ba00ff"/><path d="M321.12,484.62a12,12,0,0,0-3.31,3.69,4.16,4.16,0,0,0,.39,4.66c1.23,1.27,3.24,1.25,5,1.07a72.41,72.41,0,0,0,19.33-4.72c1.86-.74,3.84-1.68,4.76-3.47a8.88,8.88,0,0,0,.72-3.58l.34-5.51c.08-1.29-.09-2.95-1.33-3.31a2.81,2.81,0,0,0-1-.05c-4,.22-9.82-.59-13.34,1.47C328.49,477.34,324.94,481.56,321.12,484.62Z" transform="translate(-66.87 -7.97)" fill="url(#linear-gradient)"/><path d="M393.15,488.59a12.24,12.24,0,0,1,2.8,4.09,4.19,4.19,0,0,1-1,4.57c-1.39,1.1-3.38.81-5.09.4a72.18,72.18,0,0,1-18.53-7.24c-1.75-1-3.59-2.17-4.26-4.06a9,9,0,0,1-.24-3.65l.39-5.51c.09-1.29.48-2.91,1.75-3.1a2.89,2.89,0,0,1,1,.07c3.9.75,9.81.72,13,3.23C386.8,480.4,389.77,485.05,393.15,488.59Z" transform="translate(-66.87 -7.97)" fill="url(#linear-gradient-2)"/><path d="M327.89,307.85l2.49,65.71,2.5,100.65s4.4,3.18,15.19.52l9.76-103.67,5-46.58,12.47,50.74L368.65,475s5.82,5,15.8,5l18.3-104.81L389.44,298.7Z" transform="translate(-66.87 -7.97)" fill="#606161"/><path d="M327.89,307.85l2.49,65.71,2.5,100.65s4.37,1.35,15.19.52l9.76-103.67,5-46.58,12.47,50.74L368.65,475s5.82,5,15.8,5l18.3-104.81L389.44,298.7Z" transform="translate(-66.87 -7.97)" fill="url(#linear-gradient-3)"/><path d="M332.05,188.06s-16.44,9-18.3,10.82c-1.67,1.66,12.47,104,13.31,109s28.28,3.32,39.92,0a129.08,129.08,0,0,0,22.46-9.15s-5.82-106.48-8.31-108.14-25.79-6.66-25.79-6.66Z" transform="translate(-66.87 -7.97)" fill="#ba00ff"/><path d="M381.13,190.56s5,1.66,7.48,5,22.46,43.25,20,51.57-10.82,10.82-13.31,9.15S387.78,243,387,239.64s-2.44-14.29-2.44-14.29Z" transform="translate(-66.87 -7.97)" fill="#ba00ff"/><path d="M405.74,262.84a8,8,0,0,0,3.67-.41,11.15,11.15,0,0,0,3.33-2.39,40.31,40.31,0,0,0,5.43-5.73,31.45,31.45,0,0,0,3.31-6.09,71.45,71.45,0,0,0,5.54-21.5c.31-3.13.38-6.41-.95-9.25a2.77,2.77,0,0,0-.8-1.1,2.49,2.49,0,0,0-2-.26c-3.44.7-5.42,4.21-7.15,7.27a85.38,85.38,0,0,1-11.86,16.16,73.88,73.88,0,0,0-6.44,7.27c-2.11,3-4.54,7.26-2,10.52A14.29,14.29,0,0,0,405.74,262.84Z" transform="translate(-66.87 -7.97)" fill="#ba00ff"/><path d="M405.74,262.84a8,8,0,0,0,3.67-.41,11.15,11.15,0,0,0,3.33-2.39,40.31,40.31,0,0,0,5.43-5.73,31.45,31.45,0,0,0,3.31-6.09,71.45,71.45,0,0,0,5.54-21.5c.31-3.13.38-6.41-.95-9.25a2.77,2.77,0,0,0-.8-1.1,2.49,2.49,0,0,0-2-.26c-3.44.7-5.42,4.21-7.15,7.27a85.38,85.38,0,0,1-11.86,16.16,73.88,73.88,0,0,0-6.44,7.27c-2.11,3-4.54,7.26-2,10.52A14.29,14.29,0,0,0,405.74,262.84Z" transform="translate(-66.87 -7.97)" fill="url(#linear-gradient-4)"/><path d="M314.53,198.25s-11.6,5.62-14.09,13.94-20,49.9-14.14,55.73c.5.5,1.25,1.32,2.16,2.32a10.23,10.23,0,0,0,17.44-4.06l10.71-37.71S319.47,204.28,314.53,198.25Z" transform="translate(-66.87 -7.97)" fill="#ba00ff"/><path d="M301.88,269.84a2.67,2.67,0,0,1-1.07,1.3,10.28,10.28,0,0,1-2.22,1.29l0,.05a13.72,13.72,0,0,1-7.7,1.25c-5.14-.69-9.92-6.3-13.17-11.54-.55-.89-.51-2.93-.88-3.9a5.65,5.65,0,0,1-.28-2.64c.24-5.15-.23-13.36.24-18.88a9.14,9.14,0,0,1,.09-1.2c.09-.79.32-1.72,1-1.86a1.87,1.87,0,0,1,1.3.33c4.91,2.87,10.38,16.13,13.45,21,2.78,4.32,7.69,8.3,9.18,13.27A2.45,2.45,0,0,1,301.88,269.84Z" transform="translate(-66.87 -7.97)" fill="#ba00ff"/><path d="M298.73,272.06c-.05.14-.1.28-.14.37l0,.05a13.72,13.72,0,0,1-7.7,1.25c-5.14-.69-9.92-6.3-13.17-11.54-.55-.89-.51-2.93-.88-3.9a5.65,5.65,0,0,1-.28-2.64c.24-5.15-.23-13.36.24-18.88,4.73,3.67,9.78,15.86,12.7,20.5,2.78,4.31,7.7,8.3,9.18,13.26A2.54,2.54,0,0,1,298.73,272.06Z" transform="translate(-66.87 -7.97)" fill="url(#linear-gradient-5)"/><path d="M330.38,178.08s2.5,10.81,1.67,15,5.82,15.81,14.14,15.81,8.32-14.14,8.32-15.81-3.5-5.16-2.67-9.32S331.22,173.09,330.38,178.08Z" transform="translate(-66.87 -7.97)" fill="#f5e0cd"/><path d="M335,190.92a14.3,14.3,0,0,0,2.93,3.15,11.28,11.28,0,0,0,6.84,2.13,6.88,6.88,0,0,0,4.87-1.72,6.2,6.2,0,0,0,1.38-3.58,48.46,48.46,0,0,0,.48-6.59c0-1-.2-2.32-1.37-2.71a4.11,4.11,0,0,0-1.91,0,51,51,0,0,1-11.31.54c-2.6-.17-6.08-.92-5.47,1.91A19.42,19.42,0,0,0,335,190.92Z" transform="translate(-66.87 -7.97)" fill="url(#linear-gradient-6)"/><path d="M332.21,191.5s6.7,15.69,12.42,17.36c0,0,1.56.83-2.6,3.33s-15.81-10-14.14-19.14a6.86,6.86,0,0,1,4.14-5.31Z" transform="translate(-66.87 -7.97)" fill="#fff"/><path d="M351.59,185.44s3.1,14.16-1.57,22.12c0,0,2,3,3.66,3s5.82-10,4.15-17.47C356.86,188.68,352.42,184.25,351.59,185.44Z" transform="translate(-66.87 -7.97)" fill="#fff"/><path d="M310.42,254.61" transform="translate(-66.87 -7.97)" fill="none" stroke="#000" stroke-miterlimit="10" stroke-width="2.1"/><path d="M354.41,152.32s1.66,21.63,0,27.46-6.66,10.81-11.65,10.81-12.48-4.16-15.8-11.65-5-25.78-4.16-28.28,5.85-10.36,19.13-9.15C351.08,142.34,354.41,149,354.41,152.32Z" transform="translate(-66.87 -7.97)" fill="#f5e0cd"/><path d="M357.77,165.54a7.91,7.91,0,0,1-.51,1.72,3.4,3.4,0,0,1-.63,1.19,3.36,3.36,0,0,1-1.51.81,1.32,1.32,0,0,1-.73.08c-1.63-.45-1.43-4.53-.61-5.64.45-.6,2.08-1.9,2.8-1.67C357.65,162.36,357.9,164.68,357.77,165.54Z" transform="translate(-66.87 -7.97)" fill="#f5e0cd"/><path d="M323.66,167.65a1.51,1.51,0,0,0-.77-.4,1.06,1.06,0,0,0-.62.17,2.15,2.15,0,0,0-.94,1.66,5.25,5.25,0,0,0,.26,2c.4,1.44,1.05,3,2.4,3.64a.93.93,0,0,0,1,0,1,1,0,0,0,.28-.48,9.3,9.3,0,0,0,.78-3.72C325.89,169.37,324.52,168.36,323.66,167.65Z" transform="translate(-66.87 -7.97)" fill="#f5e0cd"/><path d="M417,89.87H277.26A10.13,10.13,0,0,0,267.15,100V358.27a10.1,10.1,0,0,0,10.11,10.11H417a10.12,10.12,0,0,0,10.16-10.11V100A10.14,10.14,0,0,0,417,89.87Zm-3.89,247.21H279.3V101.41H413.13Z" transform="translate(-66.87 -7.97)" fill="#ba00ff"/><circle cx="286.36" cy="343.62" r="9.63" fill="url(#linear-gradient-7)"/><path d="M335.28,193.49a10.16,10.16,0,0,0,2.18,3.06,6.7,6.7,0,0,0,4.86,1.44,5.15,5.15,0,0,0,2.77-.89,7.57,7.57,0,0,0,1.39-1.54,32.92,32.92,0,0,0,4.42-7,7.48,7.48,0,0,0,.69-3.1,3.54,3.54,0,0,0-1.32-2.78,5.08,5.08,0,0,0-2.45-.7,33.19,33.19,0,0,0-7.65-.11c-2.16.28-6.2,1.11-7.32,3.41S334.25,191.52,335.28,193.49Z" transform="translate(-66.87 -7.97)" fill="none"/><path d="M267,211.43a37.13,37.13,0,0,1,11.21,1.13,6.22,6.22,0,0,1,2.08.85,2.4,2.4,0,0,1,1.09,1.87c0,1.1-.95,1.92-1.82,2.58a5.75,5.75,0,0,1,1.87,2.15,2,2,0,0,1-.76,2.49c-.24.11-.55.19-.62.44s.15.48.32.67A2.65,2.65,0,0,1,279,228a1.33,1.33,0,0,1,1.2,1.58,2.14,2.14,0,0,1-1.54,1.52,6.34,6.34,0,0,1-2.26.15c-2.62-.14-5.34-.22-7.78.76a6,6,0,0,1-2.79.77,2.89,2.89,0,0,1-2.1-1.56,6.4,6.4,0,0,1-.63-2.63c-.22-3.82,1-7.67.37-11.45C262.93,214,263.17,211.62,267,211.43Z" transform="translate(-66.87 -7.97)" fill="#f5e0cd"/><path d="M418.7,200c-2.14.33-4.39.69-6.12,2s-2.7,3.89-1.53,5.71c.36.56.91,1.06.95,1.72a3,3,0,0,1-.45,1.43,6.42,6.42,0,0,0,.62,6.35c-.72,2.11-1.17,4.8.5,6.27,1.45,1.27,3.67.87,5.54.4l5-1.26a4.79,4.79,0,0,0,2.79-1.43,4.43,4.43,0,0,0,.65-1.57c1.39-5.15,2.23-11.08,1.43-16.41S423,199.33,418.7,200Z" transform="translate(-66.87 -7.97)" fill="#f5e0cd"/><path d="M327.11,134.2c3.58-3.19,8-5.52,10.73-9.48l.44,4.32,4.91-4a5,5,0,0,0,.35,3,6.41,6.41,0,0,1,2.55-2.51,8.33,8.33,0,0,0,.67,3.62,21.07,21.07,0,0,0,3.21-4,4.84,4.84,0,0,0,.41,3.69,4,4,0,0,0,2.07-2.65c1.31,4.68,3.93,8.93,5,13.67.87,3.82.69,7.8.51,11.72a29.67,29.67,0,0,1-3.16,12c-1.14-3.72-1.65-6.57-3.18-10.15a14.48,14.48,0,0,0-3-5c-3-2.89-7.77-2.81-12-2.47-3.85.31-8.08.88-10.61,3.79-2.07,2.39-2.46,5.8-2.26,8.95s.9,6.29.62,9.44c-2.72-3.2-5.36-6.68-6.24-10.78a11.52,11.52,0,0,1,.35-6.24c.74-2.06,2.84-3.1,3.57-4.86s0-4.05.65-6A15.53,15.53,0,0,1,327.11,134.2Z" transform="translate(-66.87 -7.97)" fill="#606161"/><path d="M327.11,134.2c3.58-3.19,8-5.52,10.73-9.48l.44,4.32,4.91-4a5,5,0,0,0,.35,3,6.41,6.41,0,0,1,2.55-2.51,8.33,8.33,0,0,0,.67,3.62,21.07,21.07,0,0,0,3.21-4,4.84,4.84,0,0,0,.41,3.69,4,4,0,0,0,2.07-2.65c1.31,4.68,3.93,8.93,5,13.67.87,3.82.69,7.8.51,11.72a29.67,29.67,0,0,1-3.16,12c-1.14-3.72-1.65-6.57-3.18-10.15a14.48,14.48,0,0,0-3-5c-3-2.89-7.77-2.81-12-2.47-3.85.31-8.08.88-10.61,3.79-2.07,2.39-2.46,5.8-2.26,8.95s.9,6.29.62,9.44c-2.72-3.2-5.36-6.68-6.24-10.78a11.52,11.52,0,0,1,.35-6.24c.74-2.06,2.84-3.1,3.57-4.86s0-4.05.65-6A15.53,15.53,0,0,1,327.11,134.2Z" transform="translate(-66.87 -7.97)" fill="url(#linear-gradient-8)"/><rect x="333.8" y="110.17" width="60.73" height="45.8" rx="14.78" fill="#ba00ff"/><rect x="333.8" y="110.17" width="60.73" height="45.8" rx="14.78" fill="url(#linear-gradient-9)"/><polygon points="358.69 122.62 375.37 133.07 358.69 143.28 358.69 122.62" fill="#ba00ff"/><path d="M518.83,211.55v24.93a10.43,10.43,0,0,1-10.43,10.43h-1.88v11l-5.69-11H457.55a10.42,10.42,0,0,1-10.43-10.43V211.55a10.42,10.42,0,0,1,10.43-10.43H508.4A10.42,10.42,0,0,1,518.83,211.55Z" transform="translate(-66.87 -7.97)" fill="#ba00ff"/><path d="M518.83,211.55v24.93a10.43,10.43,0,0,1-10.43,10.43h-1.88v11l-5.69-11H457.55a10.42,10.42,0,0,1-10.43-10.43V211.55a10.42,10.42,0,0,1,10.43-10.43H508.4A10.42,10.42,0,0,1,518.83,211.55Z" transform="translate(-66.87 -7.97)" fill="url(#linear-gradient-10)"/><rect x="389.28" y="202.2" width="53.43" height="2.99" fill="#ba00ff"/><rect x="389.28" y="210.09" width="53.43" height="2.99" fill="#ba00ff"/><rect x="389.28" y="217.97" width="53.43" height="2.99" fill="#ba00ff"/><path d="M236.72,286.72c0,14.86-15.45,26.88-34.51,26.88a42.13,42.13,0,0,1-9.51-1.06l-15.06,7.71,6-10.9c-9.61-4.73-16-13.08-16-22.63,0-14.85,15.45-26.87,34.51-26.87S236.72,271.87,236.72,286.72Z" transform="translate(-66.87 -7.97)" fill="#ba00ff"/><path d="M236.72,286.72c0,14.86-15.45,26.88-34.51,26.88a42.13,42.13,0,0,1-9.51-1.06l-15.06,7.71,6-10.9c-9.61-4.73-16-13.08-16-22.63,0-14.85,15.45-26.87,34.51-26.87S236.72,271.87,236.72,286.72Z" transform="translate(-66.87 -7.97)" fill="url(#linear-gradient-11)"/><path d="M465.38,287.89s-8-10.45-15.43-.5,16.92,21.91,16.92,21.91,17.43-12.45,15.44-19.92S469.36,279.93,465.38,287.89Z" transform="translate(-66.87 -7.97)" fill="#ba00ff"/><path d="M199.22,186.34s-8-10.45-15.43-.5,16.93,21.91,16.93,21.91,17.42-12.45,15.43-19.92S203.21,178.38,199.22,186.34Z" transform="translate(-66.87 -7.97)" fill="#ba00ff"/><path d="M199.22,186.34s-8-10.45-15.43-.5,16.93,21.91,16.93,21.91,17.42-12.45,15.43-19.92S203.21,178.38,199.22,186.34Z" transform="translate(-66.87 -7.97)" fill="url(#linear-gradient-12)"/><rect x="142.15" y="106.19" width="43.81" height="38.83" rx="9.97" fill="#ba00ff"/><rect x="151.44" y="113.33" width="25.55" height="25.55" rx="5.44" fill="none" stroke="#fff" stroke-miterlimit="10" stroke-width="1.77"/><circle cx="164.29" cy="124.68" r="4.66" fill="none" stroke="#fff" stroke-miterlimit="10" stroke-width="1.77"/><circle cx="171.43" cy="118.65" r="1.55" fill="none" stroke="#fff" stroke-miterlimit="10" stroke-width="0.88"/><path d="M302.88,64.13s8.82,15.49,23.23,13.69S341.6,64.13,341.6,64.13h5.22l-4.32-3.42s-1.44-5.22-5.4-4-9.37,6.3-9.37,6.3l-16-14.4a6.34,6.34,0,0,0,.36,6.66s-2.16,3.06.18,4.86c0,0,0,3.06,2.34,4.32C314.58,64.49,308.82,69.18,302.88,64.13Z" transform="translate(-66.87 -7.97)" fill="#ba00ff"/></svg>